<?xml version="1.0" standalone="no"?>
<!DOCTYPE svg PUBLIC "-//W3C//DTD SVG 20010904//EN"
 "http://www.w3.org/TR/2001/REC-SVG-20010904/DTD/svg10.dtd">
<svg version="1.0" xmlns="http://www.w3.org/2000/svg"
 width="512.000000pt" height="512.000000pt" viewBox="0 0 512.000000 512.000000"
 preserveAspectRatio="xMidYMid meet">
<metadata>
Created by potrace 1.16, written by Peter Selinger 2001-2019
</metadata>
<g transform="translate(0.000000,512.000000) scale(0.100000,-0.100000)"
fill="#000000" stroke="none">
<path d="M2240 5105 c-462 -60 -856 -222 -1240 -509 -122 -91 -385 -354 -476
-476 -268 -358 -434 -747 -501 -1170 -26 -164 -26 -616 0 -780 82 -519 319
-998 680 -1376 394 -412 874 -667 1441 -766 174 -30 543 -37 727 -13 1188 149
2110 1084 2239 2272 16 145 8 533 -14 667 -184 1134 -1088 2011 -2216 2151
-150 18 -501 18 -640 0z m610 -331 c805 -101 1517 -667 1803 -1434 155 -415
181 -898 72 -1326 -200 -782 -804 -1396 -1583 -1610 -443 -121 -947 -96 -1378
69 -665 255 -1179 827 -1364 1519 -95 357 -95 779 0 1136 105 392 316 752 606
1032 497 481 1157 700 1844 614z"/>
<path d="M2280 3329 c-986 -387 -1382 -547 -1402 -566 -53 -51 -63 -150 -20
-211 13 -17 160 -118 364 -248 l343 -219 55 1 c45 1 81 13 195 63 77 35 147
65 155 69 8 3 -6 -17 -32 -45 -28 -31 -51 -67 -58 -92 -7 -28 -10 -152 -8
-379 3 -316 4 -339 23 -371 27 -46 64 -71 113 -78 91 -12 101 -6 299 190 l184
181 378 -188 c375 -187 378 -189 433 -184 61 5 110 33 132 77 17 31 436 2327
436 2385 0 52 -40 119 -84 140 -78 37 -39 50 -1506 -525z m1206 84 c-4 -21
-261 -1437 -312 -1720 l-6 -32 -330 165 c-422 210 -405 208 -555 61 l-83 -82
0 80 0 80 339 340 c297 298 340 345 346 378 15 80 -10 140 -75 185 -67 45 -76
42 -642 -203 -285 -124 -524 -225 -530 -225 -12 0 -268 161 -268 169 0 6 2097
830 2113 831 5 0 6 -12 3 -27z"/>
</g>
</svg>
