<?xml version="1.0" standalone="no"?>
<!DOCTYPE svg PUBLIC "-//W3C//DTD SVG 20010904//EN"
 "http://www.w3.org/TR/2001/REC-SVG-20010904/DTD/svg10.dtd">
<svg version="1.0" xmlns="http://www.w3.org/2000/svg"
 width="512.000000pt" height="512.000000pt" viewBox="0 0 512.000000 512.000000"
 preserveAspectRatio="xMidYMid meet">
<metadata>
Created by potrace 1.16, written by Peter Selinger 2001-2019
</metadata>
<g transform="translate(0.000000,512.000000) scale(0.100000,-0.100000)"
fill="#000000" stroke="none">
<path d="M303 4490 c-134 -48 -237 -152 -284 -288 -18 -53 -19 -105 -19 -1642
0 -1537 1 -1589 19 -1642 47 -138 151 -242 288 -289 55 -19 103 -19 2253 -19
2137 0 2198 1 2252 19 138 47 242 151 289 288 18 55 19 97 19 1643 0 1546 -1
1588 -19 1643 -47 137 -151 241 -289 288 -54 18 -114 19 -2256 18 -2119 0
-2203 -1 -2253 -19z m3280 -1292 l-1012 -1012 -43 37 c-24 20 -484 476 -1023
1012 l-980 974 2035 1 2035 0 -1012 -1012z m-1855 -627 c1 -3 -320 -328 -713
-721 l-715 -715 0 1429 0 1428 713 -707 c391 -389 713 -711 715 -714z m3092
-13 l0 -1423 -712 712 -713 713 710 710 c390 390 711 710 712 710 2 0 3 -640
3 -1422z m-2620 -454 c286 -287 294 -294 369 -294 36 0 66 6 81 16 14 9 136
127 273 263 l247 246 713 -713 712 -712 -2035 0 -2035 0 715 715 c393 393 717
715 720 715 3 0 111 -106 240 -236z"/>
</g>
</svg>
